<?xml version="1.0" encoding="utf-8"?>
<!-- Generator: Adobe Illustrator 21.0.2, SVG Export Plug-In . SVG Version: 6.00 Build 0)  -->
<!DOCTYPE svg PUBLIC "-//W3C//DTD SVG 1.1//EN" "http://www.w3.org/Graphics/SVG/1.1/DTD/svg11.dtd">
<svg version="1.1" id="Layer_1" xmlns="http://www.w3.org/2000/svg" xmlns:xlink="http://www.w3.org/1999/xlink" x="0px" y="0px"
	 viewBox="0 0 200 55" style="enable-background:new 0 0 200 55;" xml:space="preserve">
<style type="text/css">
	.st0{fill:#F27C21;}
	.st1{fill:#852889;}
	.st2{fill:#AEBC38;}
</style>
<g>
	<path class="st0" d="M31,18.6h11.3c0.2,0,0.5,0.1,0.6,0.3c0.2,0.2,0.3,0.4,0.3,0.6v5.2c0,0.2-0.1,0.5-0.3,0.6
		c-0.2,0.2-0.4,0.3-0.6,0.3H23.6c-0.3,0-0.5-0.1-0.7-0.3c-0.2-0.2-0.3-0.4-0.3-0.6V2.9c0-0.2,0.1-0.4,0.3-0.6
		C23.1,2.1,23.4,2,23.6,2h6.5c0.2,0,0.5,0.1,0.6,0.3s0.3,0.4,0.3,0.6L31,18.6z"/>
	<path class="st0" d="M60.9,2.9c0-0.2,0.1-0.5,0.3-0.6C61.4,2.1,61.6,2,61.9,2H68c0.2,0,0.5,0.1,0.6,0.3c0.2,0.2,0.3,0.4,0.3,0.6
		v15.2c0,2.9-1.1,5-3.3,6.2c-2,1.1-5,1.6-8.9,1.6c-4,0-7-0.5-8.9-1.6c-2.1-1.2-3.2-3.4-3.2-6.5V2.9c0-0.2,0.1-0.5,0.3-0.6
		C45.1,2.1,45.3,2,45.5,2h6.2c0.3,0,0.5,0.1,0.7,0.3c0.2,0.2,0.3,0.4,0.3,0.6v12.4c0,1.4,0.3,2.4,1,2.9c0.6,0.6,1.7,0.9,3.3,0.9
		c1.4,0,2.5-0.3,3.1-0.9c0.6-0.6,1-1.6,1-3V2.9z"/>
	<path class="st0" d="M85.4,11.6c0.6,0.8,1.1,1.6,1.7,2.4v-11c0-0.2,0.1-0.4,0.3-0.6C87.5,2.1,87.8,2,88,2h5.9
		c0.3,0,0.5,0.1,0.7,0.3c0.2,0.2,0.3,0.4,0.3,0.6v21.7c0,0.2-0.1,0.5-0.3,0.6c-0.2,0.2-0.4,0.3-0.7,0.3h-6.7c-0.1,0-0.2,0-0.4-0.1
		c-0.2-0.1-0.3-0.2-0.4-0.3l-8.5-11.4v10.9c0,0.2-0.1,0.5-0.3,0.6c-0.2,0.2-0.4,0.3-0.7,0.3h-5.9c-0.2,0-0.5-0.1-0.6-0.3
		c-0.2-0.2-0.3-0.4-0.3-0.6V2.9c0-0.2,0.1-0.4,0.3-0.6C70.7,2.1,70.9,2,71.2,2h6.7c0.1,0,0.3,0,0.4,0.1c0.2,0.1,0.3,0.2,0.3,0.3
		c0.9,1.2,1.7,2.4,2.6,3.5C82,7,82.8,8.2,83.7,9.3C84.3,10.1,84.8,10.8,85.4,11.6z"/>
	<path class="st0" d="M104.4,14c0,0.9,0.2,1.7,0.5,2.5c0.3,0.7,0.8,1.4,1.4,1.9c1.3,1.1,3,1.6,5.3,1.6c1.5,0,3-0.2,4.5-0.5H116
		c0.8-0.2,1.4-0.4,2.1-0.6c0.6-0.2,1.2-0.4,1.6-0.6c0.3-0.1,0.6-0.1,0.9,0.1c0.3,0.2,0.4,0.4,0.4,0.8l-0.1,4.5
		c0,0.2-0.1,0.3-0.2,0.5c-0.1,0.2-0.3,0.3-0.4,0.3c-1.4,0.5-2.9,0.9-4.5,1.1c-1.6,0.2-3.4,0.4-5.3,0.4c-4.4,0-7.9-1-10.4-3
		c-2.6-2-3.9-5-3.9-8.8c0-2,0.3-3.8,0.9-5.4c0.6-1.6,1.5-2.9,2.7-3.9c1.2-1.1,2.7-1.9,4.4-2.4c1.7-0.5,3.7-0.8,5.9-0.8
		c1.9,0,3.7,0.1,5.2,0.4c1.5,0.3,2.8,0.6,3.9,0.9c0.2,0,0.3,0.1,0.4,0.3c0.1,0.2,0.2,0.3,0.2,0.5l0.3,4.4c0,0.4-0.1,0.6-0.3,0.8
		c-0.3,0.2-0.6,0.2-0.9,0.1c-0.9-0.3-2-0.7-3.4-1c-0.7-0.2-1.4-0.3-2-0.4c-0.7-0.1-1.3-0.1-2-0.1c-2.2,0-4,0.6-5.2,1.7
		C105.1,10.2,104.4,11.9,104.4,14L104.4,14z"/>
	<path class="st0" d="M129.8,2c0.3,0,0.5,0.1,0.7,0.3c0.2,0.2,0.3,0.4,0.3,0.6v7.5h7.7V2.9c0-0.2,0.1-0.4,0.3-0.6
		c0.2-0.2,0.4-0.3,0.7-0.3h6.6c0.3,0,0.5,0.1,0.7,0.3c0.2,0.2,0.3,0.4,0.3,0.6v21.7c0,0.2-0.1,0.5-0.3,0.6c-0.2,0.2-0.4,0.3-0.7,0.3
		h-6.6c-0.3,0-0.5-0.1-0.7-0.3c-0.2-0.2-0.3-0.4-0.3-0.6v-8h-7.7v8c0,0.2-0.1,0.5-0.3,0.6c-0.2,0.2-0.4,0.3-0.7,0.3h-6.6
		c-0.2,0-0.5-0.1-0.6-0.3c-0.2-0.2-0.3-0.4-0.3-0.6V2.9c0-0.2,0.1-0.4,0.3-0.6c0.2-0.2,0.4-0.3,0.6-0.3H129.8z"/>
	<path class="st0" d="M30.9,44.1v7.5c0,0.2-0.1,0.5-0.3,0.6c-0.2,0.2-0.4,0.3-0.7,0.3h-6.4c-0.2,0-0.5-0.1-0.6-0.3
		c-0.2-0.2-0.3-0.4-0.3-0.6V29.9c0-0.2,0.1-0.5,0.3-0.6c0.2-0.2,0.4-0.3,0.6-0.3h8.9c1.9,0,3.6,0.1,5,0.4c1.4,0.3,2.6,0.7,3.6,1.3
		c1,0.6,1.7,1.4,2.2,2.3c0.5,1,0.7,2.1,0.7,3.4c0,2.7-0.8,4.6-2.5,5.9c-1.7,1.2-4.2,1.9-7.4,1.8L30.9,44.1z M30.9,34.5v4.3l1.5,0.1
		c2.4,0.1,3.6-0.6,3.6-2.2c0-0.8-0.3-1.3-0.9-1.8c-0.6-0.4-1.4-0.6-2.5-0.5L30.9,34.5z"/>
	<path class="st0" d="M54.9,44.2v7.4c0,0.2-0.1,0.5-0.3,0.6c-0.2,0.2-0.4,0.3-0.7,0.3h-6.7c-0.2,0-0.5-0.1-0.6-0.3
		c-0.2-0.2-0.3-0.4-0.3-0.6V29.9c0-0.2,0.1-0.5,0.3-0.6c0.2-0.2,0.4-0.3,0.6-0.3h15.1c2.6,0,4.6,0.6,6.2,1.7
		c1.7,1.2,2.5,2.9,2.5,4.9c0,2.3-0.7,3.9-2.1,5c-0.3,0.3-0.7,0.5-1.2,0.7c-0.5,0.2-0.9,0.4-1.5,0.6c0.6,0.3,1.2,0.7,1.6,1.1
		c0.4,0.4,0.8,0.8,1.1,1.2l4.1,6.9c0.2,0.3,0.2,0.7,0,0.9s-0.4,0.4-0.8,0.4h-7.6c-0.2,0-0.3,0-0.5-0.2c-0.2-0.1-0.3-0.2-0.3-0.4
		l-3.8-7.1l0,0.1c-0.1-0.1-0.2-0.2-0.3-0.3c-0.1-0.1-0.2-0.2-0.3-0.2c-0.2-0.1-0.8-0.2-1.9-0.2H54.9z M54.8,34.4v4.5h3.6
		c1.5,0,2.6-0.2,3.3-0.5c0.8-0.3,1.1-0.9,1.1-1.8c0-0.7-0.3-1.3-0.9-1.6s-1.4-0.5-2.5-0.5H54.8z"/>
	<path class="st0" d="M98.5,49.9c-2.4,2-5.9,3-10.5,3s-8.1-1-10.5-3c-2.4-2-3.6-5-3.6-9.2c0-4.1,1.2-7.2,3.6-9.2c2.4-2,5.9-3,10.5-3
		s8.1,1,10.5,3c2.4,2,3.6,5.1,3.6,9.2C102.1,44.8,100.9,47.9,98.5,49.9z M92.3,36.9c-1-0.9-2.4-1.3-4.3-1.3s-3.3,0.4-4.3,1.3
		c-1,0.9-1.5,2.2-1.5,3.9c0,1.7,0.5,3,1.5,3.9c1,0.9,2.4,1.3,4.3,1.3s3.3-0.4,4.3-1.3c1-0.9,1.5-2.2,1.5-3.9
		C93.8,39,93.3,37.7,92.3,36.9z"/>
	<path class="st0" d="M121,28.8c0.2,0,0.4,0.1,0.6,0.3c0.2,0.2,0.3,0.4,0.3,0.7v15.4c0,2.4-0.8,4.5-2.5,6c-1.6,1.5-3.8,2.3-6.4,2.3
		c-1.4,0-2.9-0.2-4.4-0.7c-0.7-0.2-1.3-0.4-1.8-0.6c-0.4-0.2-0.8-0.3-1-0.4c-0.1-0.1-0.2-0.2-0.3-0.3c-0.1-0.1-0.1-0.3-0.2-0.4
		l-0.9-6.8c0-0.2,0-0.4,0.1-0.6c0.1-0.2,0.2-0.3,0.4-0.4c0.2-0.1,0.3-0.1,0.5-0.1c0.2,0,0.4,0.1,0.5,0.3c0.3,0.4,1,0.8,1.9,1.4
		c0.9,0.5,1.8,0.8,2.9,0.8c1.9,0,2.8-0.9,2.8-2.6V29.7c0-0.3,0.1-0.5,0.3-0.7c0.2-0.2,0.4-0.3,0.6-0.3H121z"/>
	<path class="st0" d="M125.3,52.5c-0.2,0-0.5-0.1-0.6-0.3c-0.2-0.2-0.3-0.4-0.3-0.6V29.9c0-0.2,0.1-0.5,0.3-0.6
		c0.2-0.2,0.4-0.3,0.6-0.3h17.5c0.2,0,0.5,0.1,0.6,0.3c0.2,0.2,0.3,0.4,0.3,0.6v4.4c0,0.3-0.1,0.5-0.3,0.7c-0.2,0.2-0.4,0.3-0.6,0.3
		h-10.1v2.4h8.6c0.2,0,0.5,0.1,0.6,0.3c0.2,0.2,0.3,0.4,0.3,0.6v4.3c0,0.3-0.1,0.5-0.3,0.7c-0.2,0.2-0.4,0.3-0.6,0.3l-8.6,0v2.5
		h10.9c0.3,0,0.5,0.1,0.6,0.3c0.2,0.2,0.3,0.4,0.3,0.7v4.4c0,0.2-0.1,0.5-0.3,0.6c-0.2,0.2-0.4,0.3-0.6,0.3H125.3z"/>
	<path class="st0" d="M155.2,41c0,0.9,0.2,1.7,0.5,2.5c0.3,0.7,0.8,1.4,1.4,1.9c1.3,1.1,3,1.6,5.3,1.6c1.5,0,3-0.2,4.5-0.5h-0.1
		c0.8-0.2,1.4-0.4,2.1-0.6c0.6-0.2,1.2-0.4,1.6-0.6c0.3-0.1,0.6-0.1,0.9,0.1c0.3,0.2,0.4,0.4,0.4,0.8l-0.1,4.5
		c0,0.2-0.1,0.3-0.2,0.5s-0.3,0.3-0.4,0.3c-1.4,0.5-2.9,0.9-4.5,1.1s-3.4,0.4-5.3,0.4c-4.4,0-7.9-1-10.4-3c-2.6-2-3.9-5-3.9-8.8
		c0-2,0.3-3.8,0.9-5.4c0.6-1.6,1.5-2.9,2.7-3.9c1.2-1.1,2.7-1.9,4.4-2.4c1.7-0.6,3.7-0.8,5.9-0.8c1.9,0,3.7,0.1,5.2,0.4
		c1.5,0.2,2.8,0.6,3.9,0.9c0.2,0,0.3,0.1,0.4,0.3s0.2,0.3,0.2,0.5L171,35c0,0.4-0.1,0.6-0.3,0.8c-0.3,0.2-0.5,0.2-0.9,0.1
		c-0.9-0.3-2-0.7-3.4-1c-0.7-0.2-1.4-0.3-2-0.4c-0.7-0.1-1.3-0.2-2-0.2c-2.2,0-4,0.6-5.2,1.7C155.8,37.2,155.2,38.9,155.2,41
		L155.2,41z"/>
	<path class="st0" d="M182.4,52.5c-0.2,0-0.5-0.1-0.6-0.3c-0.2-0.2-0.3-0.4-0.3-0.6V34.9h-6.2c-0.3,0-0.5-0.1-0.6-0.3
		s-0.3-0.4-0.3-0.7v-4.1c0-0.2,0.1-0.5,0.3-0.6s0.4-0.3,0.6-0.3h20.8c0.3,0,0.5,0.1,0.7,0.3c0.2,0.2,0.3,0.4,0.3,0.6V34
		c0,0.3-0.1,0.5-0.3,0.7c-0.2,0.2-0.4,0.3-0.7,0.3h-6.2v16.7c0,0.2-0.1,0.5-0.3,0.6c-0.2,0.2-0.4,0.3-0.6,0.3H182.4z"/>
</g>
<g>
	<path class="st1" d="M18.4,47c0,0.2-0.1,0.3-0.2,0.4c-0.1,0.1-0.3,0.2-0.4,0.2H6.6v4.1c0,0.2-0.1,0.3-0.2,0.4S6.2,52.3,6,52.3H3.3
		c-0.2,0-0.3-0.1-0.4-0.2s-0.2-0.3-0.2-0.4V37.9c0-0.2,0.1-0.3,0.2-0.4s0.3-0.2,0.4-0.2H6c0.2,0,0.3,0.1,0.4,0.2s0.2,0.3,0.2,0.4V42
		h11.1c0.2,0,0.3,0.1,0.4,0.2c0.1,0.1,0.2,0.3,0.2,0.4V47z"/>
	<path class="st1" d="M2.7,29.8c0-0.2,0.1-0.3,0.2-0.4s0.3-0.2,0.4-0.2h5v-5.1h-5c-0.2,0-0.3-0.1-0.4-0.2c-0.1-0.1-0.2-0.3-0.2-0.4
		v-4.4c0-0.2,0.1-0.3,0.2-0.4s0.3-0.2,0.4-0.2h14.5c0.2,0,0.3,0.1,0.4,0.2c0.1,0.1,0.2,0.3,0.2,0.4v4.4c0,0.2-0.1,0.3-0.2,0.4
		c-0.1,0.1-0.3,0.2-0.4,0.2h-5.3v5.1h5.3c0.2,0,0.3,0.1,0.4,0.2c0.1,0.1,0.2,0.3,0.2,0.4v4.4c0,0.2-0.1,0.3-0.2,0.4
		c-0.1,0.1-0.3,0.2-0.4,0.2H3.3c-0.2,0-0.3-0.1-0.4-0.2s-0.2-0.3-0.2-0.4V29.8z"/>
	<path class="st1" d="M18.4,15.3c0,0.2-0.1,0.3-0.2,0.4c-0.1,0.1-0.3,0.2-0.4,0.2H3.3c-0.2,0-0.3-0.1-0.4-0.2s-0.2-0.3-0.2-0.4V3.6
		c0-0.2,0.1-0.3,0.2-0.4S3.1,3,3.3,3h2.9c0.2,0,0.3,0.1,0.4,0.2c0.1,0.1,0.2,0.3,0.2,0.4v6.7h1.6V4.6c0-0.2,0.1-0.3,0.2-0.4
		C8.7,4,8.9,4,9,4h2.9c0.2,0,0.3,0.1,0.4,0.2c0.1,0.1,0.2,0.3,0.2,0.4l0,5.7h1.7V3.1c0-0.2,0.1-0.3,0.2-0.4s0.3-0.2,0.4-0.2h2.9
		c0.2,0,0.3,0.1,0.4,0.2c0.1,0.1,0.2,0.3,0.2,0.4V15.3z"/>
</g>
<g>
	<path class="st2" d="M182.3,24.8c0.2,2.6,0.2,2.6-2.3,2.6c-4.2,0-8.3,0-12.5,0c-2.6,0-2.7-0.1-2.3-2.7c-3.8-1.5-7-3.8-9.6-6.9
		c-3.5-4.3-5.3-9.2-5.4-14.7c0-0.9,0.3-1.2,1.2-1.2c14.9,0,29.7,0,44.6,0c1.3,0,1.3,0.7,1.3,1.6c-0.6,9.6-5.2,16.6-13.8,20.8
		c-0.3,0.2-0.7,0.3-1,0.5C182.4,24.6,182.4,24.7,182.3,24.8z"/>
	<circle class="st1" cx="161.5" cy="5.1" r="0.4"/>
	<circle class="st1" cx="165.9" cy="9.5" r="0.4"/>
	<circle class="st1" cx="161.5" cy="13.9" r="0.4"/>
	<circle class="st1" cx="157.1" cy="9.5" r="0.4"/>
	<circle class="st1" cx="161.5" cy="9.5" r="0.4"/>
	<circle class="st1" cx="158.3" cy="6.4" r="0.4"/>
	<circle class="st1" cx="164.6" cy="12.5" r="0.4"/>
	<circle class="st1" cx="164.6" cy="6.4" r="0.4"/>
	<circle class="st1" cx="158.3" cy="12.5" r="0.4"/>
	<circle class="st1" cx="159.6" cy="5.6" r="0.4"/>
	<circle class="st1" cx="163.3" cy="5.6" r="0.4"/>
	<circle class="st1" cx="165.4" cy="7.7" r="0.4"/>
	<circle class="st1" cx="157.6" cy="7.7" r="0.4"/>
	<circle class="st1" cx="157.3" cy="11.3" r="0.4"/>
	<circle class="st1" cx="159.6" cy="13.4" r="0.4"/>
	<circle class="st1" cx="163.3" cy="13.4" r="0.4"/>
	<circle class="st1" cx="165.4" cy="11.3" r="0.4"/>
	<circle class="st1" cx="161.5" cy="8.4" r="0.4"/>
	<circle class="st1" cx="161.5" cy="10.7" r="0.4"/>
	<circle class="st1" cx="162.6" cy="9" r="0.4"/>
	<circle class="st1" cx="162.6" cy="10.2" r="0.4"/>
	<circle class="st1" cx="160.5" cy="9" r="0.4"/>
	<circle class="st1" cx="160.5" cy="10.2" r="0.4"/>
	<circle class="st1" cx="160.9" cy="6.1" r="0.4"/>
	<circle class="st1" cx="159.6" cy="6.8" r="0.4"/>
	<circle class="st1" cx="158.8" cy="7.7" r="0.4"/>
	<circle class="st1" cx="158.1" cy="8.9" r="0.4"/>
	<circle class="st1" cx="158.1" cy="10.2" r="0.4"/>
	<circle class="st1" cx="158.5" cy="11.3" r="0.4"/>
	<circle class="st1" cx="162.2" cy="6.1" r="0.4"/>
	<circle class="st1" cx="163.5" cy="6.8" r="0.4"/>
	<circle class="st1" cx="159.4" cy="12.3" r="0.4"/>
	<circle class="st1" cx="160.9" cy="13" r="0.4"/>
	<circle class="st1" cx="164.4" cy="7.7" r="0.4"/>
	<circle class="st1" cx="162.2" cy="13" r="0.4"/>
	<circle class="st1" cx="163.5" cy="12.3" r="0.4"/>
	<circle class="st1" cx="164.4" cy="11.3" r="0.4"/>
	<circle class="st1" cx="164.9" cy="10.2" r="0.4"/>
	<circle class="st1" cx="164.9" cy="9" r="0.4"/>
	<circle class="st1" cx="161.5" cy="7.3" r="0.4"/>
	<circle class="st1" cx="161.5" cy="11.7" r="0.4"/>
	<circle class="st1" cx="159.2" cy="9.8" r="0.4"/>
	<circle class="st1" cx="163.8" cy="9.6" r="0.4"/>
	<circle class="st1" cx="159.7" cy="10.8" r="0.4"/>
	<circle class="st1" cx="159.6" cy="8.6" r="0.4"/>
	<circle class="st1" cx="160.3" cy="7.7" r="0.4"/>
	<circle class="st1" cx="160.4" cy="11.7" r="0.4"/>
	<circle class="st1" cx="162.6" cy="11.5" r="0.4"/>
	<circle class="st1" cx="163.5" cy="10.7" r="0.4"/>
	<circle class="st1" cx="162.6" cy="7.7" r="0.4"/>
	<circle class="st1" cx="163.5" cy="8.4" r="0.4"/>
	<circle class="st1" cx="174.5" cy="13.7" r="0.4"/>
	<circle class="st1" cx="178.9" cy="18" r="0.4"/>
	<circle class="st1" cx="174.5" cy="22.4" r="0.4"/>
	<circle class="st1" cx="170.1" cy="18" r="0.4"/>
	<circle class="st1" cx="174.5" cy="18" r="0.4"/>
	<circle class="st1" cx="171.3" cy="15" r="0.4"/>
	<circle class="st1" cx="177.6" cy="21.1" r="0.4"/>
	<circle class="st1" cx="177.6" cy="15" r="0.4"/>
	<circle class="st1" cx="171.3" cy="21.1" r="0.4"/>
	<circle class="st1" cx="172.6" cy="14.1" r="0.4"/>
	<circle class="st1" cx="176.3" cy="14.1" r="0.4"/>
	<circle class="st1" cx="178.4" cy="16.3" r="0.4"/>
	<circle class="st1" cx="170.6" cy="16.3" r="0.4"/>
	<circle class="st1" cx="170.3" cy="19.8" r="0.4"/>
	<circle class="st1" cx="172.6" cy="22" r="0.4"/>
	<circle class="st1" cx="176.3" cy="22" r="0.4"/>
	<circle class="st1" cx="178.4" cy="19.8" r="0.4"/>
	<circle class="st1" cx="174.5" cy="17" r="0.4"/>
	<circle class="st1" cx="174.5" cy="19.2" r="0.4"/>
	<circle class="st1" cx="175.6" cy="17.6" r="0.4"/>
	<circle class="st1" cx="175.6" cy="18.8" r="0.4"/>
	<circle class="st1" cx="173.5" cy="17.6" r="0.4"/>
	<circle class="st1" cx="173.5" cy="18.8" r="0.4"/>
	<circle class="st1" cx="173.9" cy="14.6" r="0.4"/>
	<circle class="st1" cx="172.6" cy="15.4" r="0.4"/>
	<circle class="st1" cx="171.8" cy="16.3" r="0.4"/>
	<circle class="st1" cx="171.1" cy="17.4" r="0.4"/>
	<circle class="st1" cx="171.1" cy="18.8" r="0.4"/>
	<circle class="st1" cx="171.5" cy="19.8" r="0.4"/>
	<circle class="st1" cx="175.2" cy="14.6" r="0.4"/>
	<circle class="st1" cx="176.5" cy="15.4" r="0.4"/>
	<circle class="st1" cx="172.4" cy="20.8" r="0.4"/>
	<circle class="st1" cx="173.9" cy="21.5" r="0.4"/>
	<circle class="st1" cx="177.4" cy="16.3" r="0.4"/>
	<circle class="st1" cx="175.2" cy="21.5" r="0.4"/>
	<circle class="st1" cx="176.5" cy="20.8" r="0.4"/>
	<circle class="st1" cx="177.4" cy="19.8" r="0.4"/>
	<circle class="st1" cx="177.9" cy="18.8" r="0.4"/>
	<circle class="st1" cx="177.9" cy="17.6" r="0.4"/>
	<circle class="st1" cx="174.5" cy="15.8" r="0.4"/>
	<circle class="st1" cx="174.5" cy="20.3" r="0.4"/>
	<circle class="st1" cx="172.2" cy="18.3" r="0.4"/>
	<circle class="st1" cx="176.8" cy="18.1" r="0.4"/>
	<circle class="st1" cx="172.7" cy="19.4" r="0.4"/>
	<circle class="st1" cx="172.6" cy="17.2" r="0.4"/>
	<circle class="st1" cx="173.3" cy="16.3" r="0.4"/>
	<circle class="st1" cx="173.4" cy="20.3" r="0.4"/>
	<circle class="st1" cx="175.6" cy="20.1" r="0.4"/>
	<circle class="st1" cx="176.5" cy="19.2" r="0.4"/>
	<circle class="st1" cx="175.6" cy="16.3" r="0.4"/>
	<circle class="st1" cx="176.5" cy="17" r="0.4"/>
	<circle class="st1" cx="186.7" cy="5.2" r="0.4"/>
	<circle class="st1" cx="191.1" cy="9.5" r="0.4"/>
	<circle class="st1" cx="186.7" cy="13.9" r="0.4"/>
	<circle class="st1" cx="182.3" cy="9.5" r="0.4"/>
	<circle class="st1" cx="186.7" cy="9.5" r="0.4"/>
	<circle class="st1" cx="183.5" cy="6.5" r="0.4"/>
	<circle class="st1" cx="189.8" cy="12.6" r="0.4"/>
	<circle class="st1" cx="189.8" cy="6.5" r="0.4"/>
	<circle class="st1" cx="183.5" cy="12.6" r="0.4"/>
	<circle class="st1" cx="184.8" cy="5.6" r="0.4"/>
	<circle class="st1" cx="188.5" cy="5.6" r="0.4"/>
	<circle class="st1" cx="190.6" cy="7.8" r="0.4"/>
	<circle class="st1" cx="182.8" cy="7.8" r="0.4"/>
	<circle class="st1" cx="182.5" cy="11.3" r="0.4"/>
	<circle class="st1" cx="184.8" cy="13.5" r="0.4"/>
	<circle class="st1" cx="188.5" cy="13.5" r="0.4"/>
	<circle class="st1" cx="190.6" cy="11.3" r="0.4"/>
	<circle class="st1" cx="186.7" cy="8.5" r="0.4"/>
	<circle class="st1" cx="186.7" cy="10.7" r="0.4"/>
	<circle class="st1" cx="187.9" cy="9.1" r="0.4"/>
	<circle class="st1" cx="187.9" cy="10.3" r="0.4"/>
	<circle class="st1" cx="185.7" cy="9.1" r="0.4"/>
	<circle class="st1" cx="185.7" cy="10.3" r="0.4"/>
	<circle class="st1" cx="186.1" cy="6.1" r="0.4"/>
	<circle class="st1" cx="184.8" cy="6.9" r="0.4"/>
	<circle class="st1" cx="184" cy="7.8" r="0.4"/>
	<circle class="st1" cx="183.3" cy="8.9" r="0.4"/>
	<circle class="st1" cx="183.3" cy="10.3" r="0.4"/>
	<circle class="st1" cx="183.7" cy="11.3" r="0.4"/>
	<circle class="st1" cx="187.4" cy="6.1" r="0.4"/>
	<circle class="st1" cx="188.7" cy="6.9" r="0.4"/>
	<circle class="st1" cx="184.6" cy="12.3" r="0.4"/>
	<circle class="st1" cx="186.1" cy="13" r="0.4"/>
	<circle class="st1" cx="189.6" cy="7.8" r="0.4"/>
	<circle class="st1" cx="187.4" cy="13" r="0.4"/>
	<circle class="st1" cx="188.7" cy="12.3" r="0.4"/>
	<circle class="st1" cx="189.6" cy="11.3" r="0.4"/>
	<circle class="st1" cx="190.1" cy="10.3" r="0.4"/>
	<circle class="st1" cx="190.1" cy="9.1" r="0.4"/>
	<circle class="st1" cx="186.7" cy="7.3" r="0.4"/>
	<circle class="st1" cx="186.7" cy="11.8" r="0.4"/>
	<circle class="st1" cx="184.4" cy="9.8" r="0.4"/>
	<circle class="st1" cx="189" cy="9.6" r="0.4"/>
	<circle class="st1" cx="184.9" cy="10.9" r="0.4"/>
	<circle class="st1" cx="184.8" cy="8.7" r="0.4"/>
	<circle class="st1" cx="185.5" cy="7.8" r="0.4"/>
	<circle class="st1" cx="185.6" cy="11.8" r="0.4"/>
	<circle class="st1" cx="187.9" cy="11.6" r="0.4"/>
	<circle class="st1" cx="188.7" cy="10.7" r="0.4"/>
	<circle class="st1" cx="187.9" cy="7.8" r="0.4"/>
	<circle class="st1" cx="188.7" cy="8.5" r="0.4"/>
</g>
</svg>
